<?xml version="1.0" encoding="utf-8"?>
<!-- Generator: Adobe Illustrator 24.0.2, SVG Export Plug-In . SVG Version: 6.00 Build 0)  -->
<svg version="1.1" id="Layer_1" xmlns="http://www.w3.org/2000/svg" xmlns:xlink="http://www.w3.org/1999/xlink" x="0px" y="0px"
	 viewBox="0 0 952.5 952.5" style="enable-background:new 0 0 952.5 952.5;" xml:space="preserve">
<style type="text/css">
	.st0{fill:#FFFFFF;}
</style>
<circle cx="476.3" cy="476.3" r="476.3"/>
<g>
	<path class="st0" d="M462.3,504.1c1.9,1.1,2.6,1.8,3.2,1.9c2.6,0.1,5.2,0.1,7.8,0.1c-0.2-2.4-0.1-4.8-0.7-7.1
		c-1-4-2.6-7.9-3.7-11.9c-0.9-3.4-3.1-4.2-6.4-4.1c-22.6,1.2-45.3,2.3-67.9,3.5c-9.3,0.5-9.3,0.6-7.7-8.8c3.7-23.2,7.6-46.4,11-69.6
		c1.2-8.4,1.4-16.9,1.6-25.4c0.1-3.9,1.2-5.6,5.3-6.2c19-2.6,37.9-5.4,56.8-8.5c7.4-1.2,14.9-2.6,21.8-5.3
		c21.6-8.7,43.1-17.7,64.3-27.3c20.9-9.4,37.9-24,52.2-41.7c4.9-6,9.4-12.5,13.8-18.9c2.3-3.3,4.4-7.1,1-10.9
		c-3.2-3.6-7.6-3.4-11.6-1.7c-15.8,6.6-31.5,13.4-47.2,20.1c-7,3-13.9,6.4-21,9.3c-15.1,6.2-30.3,12.1-45.4,18.2
		c-18.4,7.4-37.4,11.9-57.3,12.4c-23.8,0.7-47.6,1.5-71.4,2c-3.1,0.1-6.2-0.8-9.3-1.6c-19.2-4.8-38.7-9-57.6-14.9
		c-19.7-6.1-39-13.6-58.2-21.2c-10.8-4.3-21.7-7.3-33.3-8.2c-9.7-0.8-17.5,6.2-18.2,15.9c-0.2,2.8-1.6,5.6-2.2,8.4
		c-0.7,3.2-1.6,6.5-1.4,9.7c1,16.1,2.1,32.2,3.5,48.3c0.5,6.3,1.4,12.6,2.9,18.7c2.5,10.3,11.5,15.7,21.4,12.4
		c8.6-2.9,16.8-7.2,25.2-10.7c7-2.9,13.9-6.6,21.3-8c22.2-4.2,44.7-4.3,67.2-3.3c5.1,0.2,10.1,1.7,15.2,2.6c4.4,0.8,5.3,2.8,3.9,7.3
		c-8.2,28-15,56.3-17.2,85.5c-0.4,4.8-0.4,9.7-0.3,14.5c0.1,3.4-0.9,4.6-4.6,4.5c-49.8-1.7-95.3-17.5-137.9-42.4
		c-9.9-5.7-19.2-12.4-28.4-19.3c-2.8-2.1-4.9-5.8-6.3-9.2c-10-25.1-11.7-51.3-9-77.7c4.6-44.7,19.3-85.9,45.7-122.6
		c4.2-5.8,9-11.1,13.7-16.5c3-3.5,6-3.1,8,1.2c1.6,3.5,2.4,7.3,4.3,10.6c1.7,3.1,3.9,6.5,6.8,8.2c10,6,20,12,31.9,13.7
		c8.9,1.3,17.7,3.2,26.5,5c8.7,1.8,17.2,1.2,25.7-0.8c22.1-5.3,41.8-15.2,59.3-29.7c8.4-7,17.4-13.4,25.8-20.4
		c3-2.5,6.7-5.3,5.2-10.5c-1.8-6.4-4.2-12.3-11-15.1c-10.7-4.3-21.9-4.2-33-3.9c-6.4,0.2-13,1.3-19.2,2.9c-10,2.5-20.1,5-29.6,8.9
		c-7.6,3.1-14.5,8-21.2,12.8c-6.6,4.7-6.9,12.3-6.6,19.5c0.1,2,3.2,4.8,5.4,5.5c15.3,4.8,29.6,1.2,43.1-6.6c3.3-1.9,5.9-5,3.9-9.2
		c-1.8-3.9-5.5-4.2-9.1-2.9c-6.7,2.4-13.3,5.2-20,7.6c-2.3,0.8-4.8,1-7.4,0.8c4.9-8.4,12-13.8,20.3-17.8c16.7-8.1,34.1-9.9,52.1-6.3
		c2.9,0.6,6.1,1.3,8.2,3.2c1.9,1.7,3.3,5.1,3,7.6c-0.2,1.9-2.9,4.3-5,5.1c-4.9,1.9-7.9,4.9-10.8,9.4c-3.1,4.9-8.8,8.4-13.8,11.9
		c-16,11-34.6,15.4-53.2,19.2c-4.1,0.8-8.8-0.8-13.1-1.8c-10-2.5-19.9-5.3-29.8-8.1c-3.1-0.9-3.9-3-4.5-6.2
		c-4.3-22.1,8.9-36,23.1-49c19-17.4,42.9-25.4,66.9-32.2c34.6-9.8,69.5-18.8,105.2-23.5c10.2-1.3,20.7-0.9,30.9-0.1
		c19.2,1.6,38.4,4,57.6,6.1c1.1,0.1,2.3,0.1,3.5-0.1c33.3-6,64.6,1.2,94.8,14.5c11.2,5,22,11.1,33.1,16.4c1.4,0.7,3.5,0.1,5.2,0
		c1.9-0.1,3.9-0.8,5.8-0.5c10.3,1.4,19.7,5.5,27.8,11.8c20.7,16.1,38.5,35.2,53.5,56.8c6,8.6,13.6,15.9,20,24.2
		c26.8,35.1,47.5,73.3,57,116.6c3.4,15.3,5.1,31.6,4,47.1c-3.3,42.9-23.1,76-62.1,96.6c-24.8,13.1-51.5,20.8-78.1,28.7
		c-6.4,1.9-12.5,4.6-18.9,6.4c-31.7,8.9-62.9,9.1-93-6c-7.4-3.7-15.1-7.2-21.8-11.9c-4.9-3.4-8.8-8.4-12.5-13.3
		c-3.6-4.7-6-10.4-9.5-15.2c-6.3-8.8-5.1-18.5-2.1-27.4c6.3-18.2,15-35.1,29.9-48.2c12.3-10.9,26.8-17.7,41.7-24.1
		c10.8-4.7,21.4-10.1,32-15.3c11.7-5.8,24.1-7.4,36.9-7.3c5.7,0,7.4,2.2,6.8,8c-2,18.2-9.1,34.5-24.3,44.7
		c-23.9,15.9-48.8,30.6-73.9,44.5c-10.9,6-23.6,8.8-35.6,12.9c-4.5,1.5-5.6,3.2-3.2,7.2c3.3,5.4,6.9,10.6,10.3,15.9
		c2.9,4.4,6.8,4.8,11.4,3.1c36.7-13.5,73.8-25.6,108.7-44c20.1-10.6,38.7-22.8,55.5-37.9c5.9-5.3,10.6-12.4,14.5-19.4
		c5.8-10.4,11.3-21,12.6-33.4c1.9-18.1-11.3-37.8-30.3-40.1c-22-2.7-44-7.1-66.1-2.5c-12.6,2.7-24.8,7.6-37.1,11.4
		c-27.2,8.5-52.7,20.6-77,35.4c-16.4,10-29.9,23.5-42.4,37.7c-5.1,5.8-7.4,14.4-9.5,22.2c-2.7,9.8-3.9,19.9-5.6,29.9
		c-0.3,1.7-0.3,3.9,0.5,5.3c5.3,9.2,4,19.7,6.2,29.5c0.3,1.5,0.7,3.2,1.6,4.3c6.2,6.7,13,12.8,18.6,19.8
		c5.7,7.2,12.3,11.8,21.5,12.9c20.5,2.6,40.8,6,61,10.7c19.4,4.5,39.5,6.1,59.3,8.5c19.3,2.3,38.8,3.4,58.1,6
		c22.4,3.1,43.1,11.5,62,23.9c5.2,3.4,9,8.1,9.8,14.4c2.1,17.5,1.7,34.9-1.7,52.2c-1.3,6.6-4.6,12.2-9.4,17.2
		C759.2,676,747,690.6,733.6,704c-8.9,8.9-18.9,16.9-29.3,23.9c-5.9,3.9-13.6,5.1-20.5,7.4c-1.3,0.4-3.2,0.3-4.3-0.4
		c-1.4-0.9-2.8-2.5-3.1-4c-0.2-0.9,1.6-2.5,2.8-3.4c3.7-2.9,7.8-5.4,11.2-8.6c18.5-17.1,24.5-39.6,25.7-63.6
		c0.7-14.1-0.1-28.2-0.5-42.3c-0.2-5.2-3.2-8.3-8-11c-20.8-11.9-43-19.4-66.7-22.5c-1.6-0.2-3.5-0.5-4.9,0.1
		c-20.8,8.2-30.5,21-28.7,42.1c0.7,8.1,3.5,16.3,6.3,24c2.9,8,9.1,12.1,18,12.5c11.3,0.6,21.1-1.7,28.7-10.7c1-1.2,3.5-1.4,5.4-1.7
		c8.7-1.4,15.9-5,19.4-13.6c0.7-1.6,1.4-3.7,0.9-5.3c-0.6-2.1-2-4.9-3.7-5.6c-1.2-0.5-4.5,1.4-5.4,3c-1.8,3.1-3.4,5.2-7.3,4.6
		c-5.2-0.8-9.5-3-12.4-7.5c-0.5-0.8,0-2.6,0.7-3.6c7.2-10.2,28.5-15,39.9-9.3c3.8,1.9,5.7,4.7,5.9,9c0.4,8.4-1,16.3-5,23.6
		c-0.8,1.4-1.9,2.8-3.1,3.8c-12.8,11.4-25.7,22.7-38.5,34c-1.6,1.4-3.3,2.9-5.1,3.9c-11.9,6.2-19.9,16.1-27.5,26.9
		c-15.5,21.9-35.7,38.7-62.2,45c-13.7,3.3-28.5,3.2-42.7,2.4c-29.4-1.7-58.8-4.7-88.1-7.8c-45.3-4.7-87.6-19.7-128.4-39.3
		c-15.9-7.6-31-16.8-46-26.1c-9-5.6-15-14.1-17.6-24.6c-0.7-2.9-1.7-4.6-5.1-4.9c-18.6-1.3-32.7-10.7-43.1-25.6
		c-7.6-10.9-13.2-22.8-14.2-36.3c-1.7-23.9,11.1-42.4,34.6-52.2c15-6.3,30.6-7.5,46.5-7.5c31.5,0.1,63,0.2,94.5,0.6
		c23.2,0.2,45.6-5.2,68-10.2c10.7-2.4,21.2-5.8,31.8-8.8C457.3,513.2,463.2,512.7,462.3,504.1z M351.9,713.4
		c-21.3-16.1-44.4-29.6-63.7-48.3c-4.6-4.5-10.2-8-15.4-11.9c-0.4-0.3-1.2-0.1-2-0.2c2.8,7,15.2,20,22.5,24.9
		c7.5,4.9,14.6,10.4,21.8,15.8c6.1,4.6,11.8,9.7,18.1,14C338.7,711.5,344.7,714.1,351.9,713.4z M635.7,404.7
		c-2.4-2.4-4.1-5.4-6.6-6.3c-6.7-2.3-12.8,2.6-13,9.5c-0.1,2.1-0.3,4.3-0.5,6.4c-0.3,2.6,0.6,4.1,3.3,3c4.1-1.7,8.3-3.5,12-5.9
		C632.7,410.3,633.6,407.7,635.7,404.7z M605.6,423.1c-1.5-4.1-2.7-8-4.2-11.7c-0.5-1.2-1.7-2-2.6-3c-1,1-2.5,1.8-3,2.9
		C593.4,417.5,598.9,424,605.6,423.1z"/>
	<path class="st0" d="M351.9,713.4c-7.2,0.7-13.2-1.9-18.6-5.6c-6.3-4.3-12-9.4-18.1-14c-7.2-5.4-14.3-10.9-21.8-15.8
		c-7.3-4.8-19.7-17.8-22.5-24.9c0.7,0,1.5-0.1,2,0.2c5.2,3.9,10.8,7.4,15.4,11.9C307.5,683.8,330.6,697.3,351.9,713.4z"/>
	<path class="st0" d="M635.7,404.7c-2.1,3-3,5.6-4.8,6.8c-3.7,2.4-7.9,4.2-12,5.9c-2.7,1.1-3.6-0.4-3.3-3c0.3-2.1,0.5-4.3,0.5-6.4
		c0.2-7,6.3-11.8,13-9.5C631.6,399.3,633.3,402.3,635.7,404.7z"/>
	<path class="st0" d="M605.6,423.1c-6.7,0.9-12.2-5.6-9.8-11.8c0.5-1.2,1.9-2,3-2.9c0.9,1,2.1,1.9,2.6,3
		C602.9,415.2,604.2,419,605.6,423.1z"/>
</g>
<g>
	<path d="M742.1,773.8c-3.7-3.4-7.5-5.9-11.5-7.5c11.1-8.3,12.9-18.4,12.9-24.1c0-7.4-2.9-17.9-16.7-26.5c-0.1-0.1-0.2-0.2-0.4-0.2
		c-14.1-8.3-28.7-12.5-43.6-12.5c-2.3,0-4.3,0.1-6,0.2c-0.1,0-0.2,0-0.3,0c-0.9-0.1-1.8-0.1-2.8-0.1c-1.4,0-2.9,0.1-4.6,0.3
		c-28.9,2.5-42.9,18.4-49.6,31.4c-0.8,1.6-1.5,3.2-2.2,4.9l-0.3-0.7c-3.9-10.6-13.2-18.7-27.5-24.2c-4.5-1.7-9-2.6-13.5-2.6
		c-5.5,0-12.4,1.3-19.5,5.9c-2.3-2.2-4.6-3.9-6.7-5.1c-6.4-3.7-12.9-5.5-19.3-5.5c-5.5,0-11.5,1.3-18.3,4c-4.3,1.7-8.5,4.1-12.6,7.4
		c-2.4-2.3-5.2-4.4-8.2-6.4c-7.6-5-15.9-7.5-24.7-7.5c-7.5,0-14.6,2-21,5.8c-0.1,0-0.1,0.1-0.2,0.1c-2.9,1.8-5.4,4.1-7.4,6.7
		c-12.5-9.6-27.2-14.4-44-14.4c-6,0-12.1,0.6-18.2,1.9c-9.6,1.9-17.3,4.6-23.7,8.1c-6.6,3.6-15.1,11.1-18.7,25.7c0,0,0,0.1,0,0.1
		c-0.8,3.2-1.6,7.8-2.7,14.1l-0.3,1.5c-1.7-1.8-3.6-3.5-5.6-5.1c-10.8-8.8-23.6-13.2-38.1-13.2c-1.1,0-2.3,0-3.5,0.1
		c-0.5-3.7-0.9-7.3-1.2-10.9c-0.7-10-1.2-22.9-1.3-38.5v-4.9c0-7.4-1.4-14.1-4-19.8c-3.1-6.6-8.1-11.9-14.7-16
		c-5-3.1-10.8-4.7-17.2-4.7c-7,0-13.8,2-19.6,5.9c-8,5.4-12.6,13.6-12.6,22.6v25.5c0,14.6,1,27.8,3.1,39.2c0,0,0,0.1,0,0.1
		c3.6,19.4,5.4,44.4,5.4,74.5c0,10.5,4.3,17.3,7.9,21c4.2,4.4,9.6,7.5,16,9.2c3.3,0.9,4.3,1.2,4.5,1.2c0.8,0.3,1.7,0.5,2.5,0.7
		c3.2,0.6,5.2,0.9,7.2,0.9c10.3,0,19-4.9,24.6-13.6c1.7,6.9,5.8,13.3,12.2,19c7.9,7.1,16.5,10.8,25.4,10.8c2.8,0,5.4-0.3,7.7-1
		c5.1-1.4,9.6-4.3,13.5-8.7c5.7-6.5,7-12.8,7-17.1c0,0,0.2-16.3,0.2-19.2c3.3,2.9,6.9,5.5,10.9,7.7c9.7,5.4,20.1,8.1,30.8,8.1
		c10.4,0,19.9-2.6,28.2-7.7c10.7-6.6,20.1-16.1,28.1-28.4c0,0,0-0.1,0.1-0.1c5.2-8.2,8.7-16.4,10.3-24.5c0.6,3.9,0.9,8.1,0.9,12.5
		c-0.1,7.8,0.6,16.6,2.1,27c0,0,0,0.1,0,0.1c0.6,3.8,1.2,7.4,2,10.9c2,9.4,8.4,16.9,17.8,21.1c5.1,2.3,9.5,3.3,13.8,3.3
		c4.1,0,7.9-1,11.4-2.9c6.3-3.5,9.9-9.3,12.1-13.4c0.5-1,1.1-2,1.5-3c2.6,4.9,6.7,8.9,11.8,11.4c4.5,2.2,9.2,3.3,14.1,3.3
		c2.7,0,5.4-0.3,8.1-1c7.9-2,13.4-7.7,17.8-14.8c2.7,8.5,6.2,15.3,10.6,20.5c5.5,6.7,13.2,10.3,21.6,10.3c2.6,0,5.3-0.4,7.9-1.1
		c13.2-3.5,21.8-13.3,23.1-25.9c7.1,6.4,15.8,11,25.6,13.5c8,2.1,14.9,3.1,20.9,3.1c21.3,0,41.2-8.9,59.2-26.4
		c0.1-0.1,0.1-0.1,0.2-0.2c2.6-2.6,10.6-10.6,10.6-22.1C751.5,786.6,748.2,779.4,742.1,773.8z"/>
	<path class="st0" d="M262.3,727.2c0.7,10.4,2.5,21.4,5.4,33.1c7-2.5,13.4-3.7,19.2-3.7c9.8,0,18.3,2.9,25.5,8.7
		c7.2,5.8,12,13.1,14.5,21.7c2,6.3,3,14.8,3,25.5l-0.2,19.5c0,1.2-0.7,2.5-2,4c-1.3,1.5-2.7,2.4-4,2.7c-0.5,0.2-1.2,0.2-2.2,0.2
		c-3.8,0-7.8-1.9-12-5.6c-4.2-3.7-6.3-7.5-6.5-11.1l-0.5-13c0-3-0.2-7.3-0.5-13c-0.3-5.8-1-10-2-12.5c-1-2.8-2.2-5-3.7-6.5
		c-1.5-1.5-3.2-2.2-5-2.2c-1.3,0-2.8,0.6-4.4,1.7c-1.6,1.2-3,2.7-4.1,4.7c-3.5,5.5-8.1,16.3-13.7,32.5c-1.8,5.8-5.1,8.7-9.7,8.7
		c-0.5,0-1.6-0.2-3.2-0.5c-1-0.3-2.9-0.9-5.7-1.6c-2.8-0.7-5-2-6.6-3.6c-1.6-1.7-2.4-4.1-2.4-7.2c0-31.5-1.9-57.5-5.7-78.1
		c-1.8-10.3-2.7-22.2-2.7-35.7v-16.7v-8.7c0-2.3,1.2-4.3,3.7-6c2.5-1.7,5.3-2.5,8.5-2.5c2.7,0,4.9,0.6,6.7,1.8
		c3.3,2,5.7,4.5,7.1,7.5c1.4,3,2.1,6.7,2.1,11.2v5C261.1,703.5,261.6,716.8,262.3,727.2z"/>
	<path class="st0" d="M391.5,808.7c-7.3,0-14.4-1.9-21.1-5.6c-6.7-3.7-12.1-9.1-16.1-16.1c-4-7-5.7-15-5-24l1.2-6
		c1-6,1.8-10.4,2.5-13.2c1.5-6.2,4.5-10.5,9-13c4.5-2.5,10.5-4.5,18-6c4.8-1,9.6-1.5,14.2-1.5c14.6,0,27,4.9,36.9,14.7
		c5.3,5.3,8,11.8,8,19.5c0,7.5-2.7,15.6-8.2,24.2c-6.3,9.8-13.6,17.2-21.7,22.2C404.1,807.1,398.2,808.7,391.5,808.7z M379.8,760.3
		l-2.5,7.5l1.7,0.7c0,1.2,0,3,0.1,5.4c0.1,2.4,0.4,4.5,0.9,6.1c1.8,5.2,3.9,8.3,6.2,9.5c1,0.5,2.5,0.3,4.4-0.7
		c1.9-1,3.6-2.2,5.1-3.5c2.3-2,6.1-6.2,11.2-12.5c3.8-4.3,5.7-9.5,5.7-15.5c0-5.2-1.5-9.8-4.4-14c-2.9-4.2-7-7-12.1-8.5
		c-0.5-0.2-1.4-0.3-2.7-0.3c-3.2,0-4.9,0.5-5.2,1.5C385.6,742.5,382.8,750.6,379.8,760.3z"/>
	<path class="st0" d="M582.6,733.5c8.7,3.3,14,7.5,15.9,12.5l7.5,20c2,5.2,3.7,13.1,5.1,23.7c1.4,10.6,2.7,20.8,3.9,30.5
		c0.2,0.5,0.2,1.4,0.2,2.7c0,5.2-2.8,8.5-8.5,10c-3.7,1-6.7,0.1-9-2.7c-3.5-4.2-6.3-10.6-8.5-19.2c-1.2-4.7-2.8-14.6-5-30
		c0-12-4.2-16.4-12.5-13.2c-4.3,8.5-7.1,15.4-8.4,20.7s-2.5,9.9-3.9,13.7c-4.2,9.7-7.7,14.9-10.6,15.6c-2.9,0.7-5.7,0.5-8.5-0.9
		c-2.7-1.3-4.1-4-4.1-8c0-8.3-0.5-18.5-1.4-30.6c-0.9-12.1-3.7-17.8-8.5-17.2c-4.7,0.6-8,2.3-9.9,5.2c-1.8,2.9-4.1,8.4-6.9,16.4
		c-2.7,8-4.8,16.7-6.1,26.2c-0.3,2.5-1.3,5.2-2.9,8.1c-1.6,2.9-3,4.7-4.4,5.5c-1.3,0.7-3.8,0.3-7.4-1.2c-3.6-1.6-5.7-3.9-6.4-7
		c-0.7-3.1-1.2-6.3-1.7-9.6c-1.3-9.3-2-17.3-1.9-24c0.1-6.7-0.5-12.9-1.6-18.7c-0.3-1.3-1.1-3.3-2.2-6c-1.2-2.7-7.2-7.2-18.2-13.5
		c-3-2.8-4.4-5.6-4.2-8.4c0.2-2.7,1.3-4.8,3.5-6.1c3.3-2,6.9-3,10.7-3c4.8,0,9.4,1.4,13.7,4.2c4.3,2.8,7.6,6,9.7,9.5
		c2,3.2,3.3,5.7,4,7.5c0.7,1.8,1.6,2.7,2.7,2.7c1,0,2.1-0.8,3.4-2.4c1.2-1.6,3-3.6,5.4-6.1c4.8-5.2,9.4-8.6,13.9-10.4
		c4.4-1.8,8.1-2.6,11-2.6c2.9,0,6,1,9.4,2.9c3.3,1.9,5.6,5.2,6.7,9.9l4.7,18.5l7.7-15.2C566.1,733.5,573.9,730.2,582.6,733.5z"/>
	<path class="st0" d="M674.8,723.2c1,0.1,1.9,0.1,2.7,0.1c1.2-0.2,2.9-0.3,5.2-0.3c11.3,0,22.5,3.2,33.5,9.7c4.8,3,7.2,6.2,7.2,9.5
		c0,3.7-2.5,6.9-7.5,9.7c-4.2,2.5-8.5,5.4-13,8.7c-8,5.3-14.8,9.5-20.3,12.5c-5.6,3-11.7,5.1-18.3,6.2c-1,0.3-2,1.2-3.1,2.6
		c-1.1,1.4-1.5,2.5-1.4,3.1c0.3,1,0.9,3,1.7,6.1c0.8,3.1,1.8,5.7,2.9,7.7c1.1,2.1,2.4,3.8,3.9,5.1c1.7,1.3,4.2,2,7.5,2
		c3.3,0,6.4-0.5,9.2-1.5c10-4.7,19.5-10.5,28.5-17.5c2.7-1.8,5-2.7,7-2.7c2.5,0,5.2,1.3,8,4c2,1.8,3,3.7,3,5.7c0,2.2-1.6,4.8-4.7,8
		c-14.1,13.8-29.2,20.7-45.2,20.7c-4.3,0-9.7-0.8-16-2.5c-10.7-2.7-18.8-8.6-24.5-17.7c-5.7-9.2-8.5-19.6-8.5-31.5
		c0-3.7,0.3-7.2,0.7-10.5c0.2-1.2,0.5-3.6,1.1-7.4c0.6-3.7,1.5-6.9,2.9-9.4c6.3-12.5,17.6-19.4,33.7-20.7
		C672.6,723.2,673.8,723.1,674.8,723.2z M677.6,739.8c-3.8,0-6.8,1.2-9,3.5c-2.2,2.3-3.9,5.8-5.2,10.5c4,0.5,8.3-0.5,12.9-3.1
		c4.6-2.6,7.7-5.7,9.4-9.4C682.6,740.3,679.9,739.8,677.6,739.8z"/>
</g>
</svg>
