<?xml version="1.0" encoding="utf-8"?>
<!-- Generator: Adobe Illustrator 24.0.2, SVG Export Plug-In . SVG Version: 6.00 Build 0)  -->
<svg version="1.1" id="Layer_1" xmlns="http://www.w3.org/2000/svg" xmlns:xlink="http://www.w3.org/1999/xlink" x="0px" y="0px"
	 viewBox="0 0 49.1 52.2" style="enable-background:new 0 0 49.1 52.2;" xml:space="preserve">
<style type="text/css">
	.st0{fill:#FFFFFF;}
</style>
<g>
	<path d="M48.8,17.6c-0.6-2.8-2-5.6-4.1-8.3c-0.2-0.3-0.4-0.5-0.6-0.8c-0.2-0.3-0.5-0.5-0.7-0.8c-1.1-1.6-2.4-3-3.9-4.1
		c-0.7-0.5-1.5-0.9-2.4-1c0,0-0.2,0-0.2,0c-0.1,0-0.2,0-0.4,0c0,0,0,0,0,0c-0.2-0.1-0.4-0.2-0.7-0.3c-0.5-0.2-0.9-0.5-1.4-0.7
		c-1.9-0.8-3.6-1.2-5.2-1.2c-0.6,0-1.2,0.1-1.8,0.2l-1.2-0.1c-0.9-0.1-1.8-0.2-2.7-0.3C23.1,0,22.7,0,22.3,0c-0.4,0-0.8,0-1.1,0.1
		c-2.5,0.3-5,1-7.3,1.6c-1.7,0.5-3.5,1.1-5,2.4c-0.8,0.7-2,1.8-2,3.6c0,0-0.1-0.1-0.1-0.2c0-0.1-0.1-0.2-0.1-0.2
		c0-0.1-0.1-0.3-0.2-0.4C6.3,6.4,5.9,6.1,5.4,6.1c-0.2,0-0.6,0.1-1,0.5L4.2,6.8c-0.3,0.3-0.6,0.6-0.8,1c-1.9,2.6-3,5.5-3.3,8.8
		c-0.2,2.2,0,4.1,0.7,5.8c0.1,0.3,0.4,0.8,0.8,1.1c0.6,0.5,1.3,0.9,2,1.4c3.3,1.9,6.5,2.9,9.9,3c0.5,0,0.8-0.2,0.9-0.4
		c0.2-0.2,0.4-0.6,0.3-1c0-0.3,0-0.6,0-0.9c0.1-1.6,0.5-3.4,1.1-5.6c0-0.2,0.2-0.7-0.1-1.2c-0.2-0.3-0.5-0.5-0.9-0.6
		c-0.1,0-0.2,0-0.3-0.1c-0.3-0.1-0.6-0.1-0.9-0.1c-0.5,0-1,0-1.5,0c-1.2,0-2.3,0.1-3.3,0.3c-0.5,0.1-0.9,0.3-1.3,0.5l-0.3,0.1
		C7,19,6.8,19.1,6.6,19.2c-0.3,0.1-0.6,0.3-1.1,0.4c-0.1,0-0.1-0.1-0.1-0.1c-0.1-0.3-0.1-0.7-0.2-1.1c-0.1-1.1-0.2-2.2-0.2-3.3
		c0,0,0-0.2,0-0.3l0-0.1c0,0,0-0.1,0-0.1c0-0.1,0.1-0.3,0.1-0.6c0-0.1,0-0.2,0.2-0.2c0,0,0,0,0,0c0.6,0,1.3,0.2,2,0.5
		c1.3,0.5,2.7,1,4,1.5c1,0.3,1.9,0.5,2.9,0.8c0.4,0.1,0.7,0.2,1.2,0.3c0.2,0.1,0.5,0.1,0.8,0.1c0,0,0,0,0,0c1.3,0,2.6-0.1,3.9-0.1
		l1,0c1.4,0,2.8-0.3,4.2-0.9l1-0.4c0.7-0.3,1.4-0.6,2.1-0.8c0.3-0.1,0.6-0.3,0.9-0.4c0.2-0.1,0.4-0.2,0.6-0.3
		c0.6-0.3,1.2-0.5,1.8-0.8c0,0,0,0,0,0c-1,1.2-2,2-3.2,2.6c-1.4,0.6-2.8,1.2-4.3,1.8c-0.4,0.1-0.8,0.2-1.3,0.3
		c-1.3,0.2-2.6,0.4-3.8,0.6c-0.7,0.1-1.2,0.6-1.2,1.4c0,0.6,0,1.1-0.1,1.6c-0.2,1.2-0.4,2.4-0.6,3.5l-0.2,1.2
		c-0.1,0.5-0.1,0.9,0.2,1.4c0.4,0.4,0.8,0.4,1,0.4c0.1,0,0.2,0,0.4,0l3.7-0.2c0,0,0,0.1-0.1,0.1l-0.6,0.2c-0.5,0.2-1,0.3-1.5,0.4
		l-0.3,0.1c-1.4,0.3-2.7,0.6-4.1,0.6c0,0,0,0,0,0c-2.1,0-4.3,0-6.5,0c-1,0-2.3,0.1-3.5,0.6c-2,0.8-3.1,2.5-3,4.6c0.1,1,0.4,2,1.1,3
		c0.8,1.2,1.9,1.9,3.2,2.1c0.3,0.8,0.8,1.5,1.5,1.9c0.2,0.1,0.8,0.5,0.8,0.5c0.2,0.1,0.3,0.1,0.5,0.1c0,0,0.1,0,0.1,0
		c0.1,0,0.2,0,0.3,0c-0.7,0-1.3,0.3-1.8,0.8c-0.4-0.3-0.8-0.5-1.3-0.5c-0.5,0-0.9,0.2-1.2,0.5c-0.3,0.3-0.5,0.7-0.6,1.2
		c0,0.5,0,1.2,0,2.1c0,1,0,2,0.1,3c0,0.4,0.1,0.7,0.4,1.1c0.3,0.4,0.7,0.6,1,0.6c0.1,0,0.2,0,0.3,0c0.2,0,0.5-0.1,0.8-0.2
		c0.4-0.2,0.7-0.4,0.8-0.7c0.3-0.5,0.5-1,0.5-1.7l0-0.6c0-0.4,0.1-0.8,0.2-1c0.1-0.2,0.3-0.4,0.6-0.6c0.1,1.2,0.2,2.1,0.2,2.7
		c0,0.5,0.1,0.9,0.4,1.2c0.2,0.3,0.5,0.5,0.9,0.6c0.2,0.1,0.4,0.1,0.4,0.1c0.2,0.1,0.4,0.1,0.6,0.1c0.5,0,1-0.2,1.2-0.7
		c0.2-0.3,0.3-0.6,0.3-0.9c0-0.1,0-0.3,0-0.6l0-0.6c0-0.3,0-0.6,0-0.6c0-0.2,0-0.4,0-0.7c0,0,0-0.1,0-0.1c0,0,0-0.1,0.1-0.2
		c0.1-0.2,0.1-0.2,0.1-0.2c0.2-0.2,0.3-0.4,0.4-0.5c0,0.3,0,0.6,0.1,0.9c0,0.3,0,0.6,0,0.8l0.1,1.9c0,0.3,0.1,0.6,0.3,0.8
		c0.2,0.2,0.4,0.4,0.6,0.5c0.4,0.2,0.7,0.3,1.1,0.3c0.5,0,1-0.2,1.3-0.6c0.3-0.3,0.5-0.8,0.5-1.3c0-0.3,0-0.7,0-1.1
		c0.2,0.4,0.4,0.7,0.7,1.1c0.5,0.6,1.2,1.1,2,1.5c0.8,0.4,1.6,0.6,2.4,0.6c0.8,0,1.5-0.1,2.1-0.3c0.7-0.3,1.3-0.7,1.7-1.4
		c0.2-0.3,0.3-0.7,0.3-1.2c0-0.4-0.1-0.8-0.3-1.2c-0.3-0.4-0.7-0.6-1.2-0.6c-0.2,0-0.4,0-0.6,0.1c0,0,0.1-0.1,0.1-0.1
		c0.6-0.8,0.9-1.4,0.9-2.1c0-0.5-0.2-0.9-0.5-1.3c0.2,0.2,0.4,0.3,0.7,0.3c0,0,0,0,0,0c0.3,0,0.5-0.1,0.7-0.3
		c-0.1,0.1-0.2,0.2-0.2,0.2c-0.1,0.1-0.2,0.3-0.4,0.4c0,0,0,0.1-0.1,0.1c-0.1,0.3-0.2,0.6-0.3,0.9c-0.1,0.6,0.1,1.1,0.6,1.4
		c0.2,0.1,0.5,0.2,0.7,0.3l0.6,0.1c0,0,0.1,0,0.1,0c0,0.8,0,1.6,0.1,2.2c0.1,1.1,0.8,1.8,1.9,1.8c0.5,0,0.9-0.1,1.2-0.4
		c0.3-0.2,0.5-0.6,0.6-1.1c0-0.1,0-0.1,0-0.2c0-0.7,0-1.2,0-1.6c0-0.1,0-0.2,0.1-0.3c0,0.1,0,0.1,0.1,0.2l0.2,0.9
		c0.2,0.9,0.3,1.8,0.5,2.4c0.2,1.1,1.1,1.8,2.3,1.8c0.3,0,0.7-0.1,1.1-0.2c0.5-0.2,0.8-0.7,0.7-1.2l-0.2-0.6c0-0.2-0.1-0.4-0.2-0.7
		c-0.1-0.3-0.2-0.7-0.3-0.9l-0.6-3.2c0-0.1,0-0.1-0.1-0.2l-0.3-0.9c-0.3-0.7-0.8-1.4-1.5-1.9c-0.1-0.1-0.1-0.1-0.2-0.1
		c0,0,0.1,0,0.2,0.1c0.2,0.1,0.4,0.2,0.6,0.2c0.3,0,0.6-0.1,0.8-0.4c0.4-0.4,0.7-0.7,1-0.9c0.2-0.1,0.4-0.3,0.5-0.4
		c0.8-0.7,1.6-1.4,2.3-2.1c-0.1,1-0.3,1.8-0.8,2.5c-0.2,0.3-0.2,0.7-0.1,1c0.1,0.3,0.4,0.5,0.8,0.6c0.1,0,0.3,0,0.4,0.1c0,0,0,0,0,0
		c-0.2-0.1-0.4-0.1-0.6-0.1c-0.5,0-1,0.2-1.4,0.5c-0.4,0.4-0.7,0.9-0.6,1.5c0,0.4,0.1,1,0.2,1.8c0,0.3,0.1,0.6,0.2,1.1
		c0.2,1.3,0.8,2.3,1.9,3c0.6,0.4,1.4,0.6,2.2,0.6c0.7,0,1.4-0.2,1.9-0.5c0.6-0.4,1.1-0.9,1.4-1.6c0.4-1.1,0.7-2.2,0.7-3.4
		c0-1.1-0.2-2.1-0.5-3.2C45,42,44.5,41.5,43.5,41c-0.1,0-0.2-0.1-0.3-0.1c0.1,0,0.1,0,0.2,0c0.3,0,0.5-0.1,0.7-0.3l0.1-0.2
		c0.3-0.3,0.5-0.6,0.8-0.8c0.5-0.5,0.8-1.1,0.9-1.7c0.2-1.2,0.3-2.6,0.1-3.9c-0.1-0.7-0.5-1.3-1.1-1.7c-1.5-1-3-1.6-4.6-1.8
		c-0.5-0.1-0.9-0.1-1.4-0.2l0.1,0c1.8-0.5,3.6-1.1,5.3-2c2.9-1.5,4.5-4,4.8-7.4C49.2,20,49.1,18.8,48.8,17.6z M42.9,40.9
		c-0.1,0-0.2,0-0.2,0C42.7,40.9,42.8,40.9,42.9,40.9z M42.5,41c0,0-0.1,0-0.1,0C42.5,41,42.5,41,42.5,41z M42.3,41.1
		c0,0-0.1,0-0.1,0.1C42.2,41.1,42.3,41.1,42.3,41.1z M42.1,41.2c0,0-0.1,0.1-0.1,0.1C42,41.2,42,41.2,42.1,41.2z M41.9,41.3
		c0,0-0.1,0.1-0.1,0.1C41.8,41.4,41.8,41.4,41.9,41.3z M40.5,43.1c0.2,0,0.3,0,0.5-0.1c0.3-0.2,0.5-0.4,0.5-0.7c0,0,0,0,0,0
		c0,0.1,0,0.2,0,0.3l0,1.8c0-0.1-0.1-0.2-0.2-0.3c-0.3-0.5-0.8-0.9-1.5-1.1c0.1,0,0.2,0.1,0.2,0.1C40.2,43.1,40.4,43.1,40.5,43.1z
		 M41.7,41.6c0,0.1-0.1,0.1-0.1,0.2C41.7,41.7,41.7,41.6,41.7,41.6z M41.6,41.8c0,0.1,0,0.1-0.1,0.2C41.5,42,41.6,41.9,41.6,41.8z
		 M20.6,42C20.5,42,20.5,42,20.6,42C20.5,42,20.5,42,20.6,42C20.6,42,20.6,42,20.6,42z M19.8,42.4c0,0-0.1,0.1-0.1,0.1
		C19.7,42.4,19.8,42.4,19.8,42.4z M11,42c0.1,0,0.1,0,0.2,0C11.1,42,11.1,42,11,42z M12.4,42.6c-0.2-0.1-0.4-0.2-0.5-0.3
		c0,0,0,0,0,0c0.1,0.1,0.3,0.1,0.5,0.1c0.2,0,0.4-0.1,0.5-0.2c0,0,0.1-0.1,0.2-0.1C12.9,42.3,12.6,42.5,12.4,42.6z M13.2,42.2
		c0.1-0.1,0.2-0.1,0.3-0.2c0,0,0.1,0,0.1-0.1c0,0,0.1,0,0.1,0C13.6,41.9,13.4,42,13.2,42.2z M15.5,41.5c0.1,0,0.2,0,0.4,0
		C15.8,41.5,15.6,41.5,15.5,41.5z M16.1,41.6c0.1,0,0.1,0,0.2,0C16.2,41.6,16.1,41.6,16.1,41.6z M16.5,41.8c0,0,0.1,0,0.1,0.1
		C16.6,41.8,16.6,41.8,16.5,41.8z M17.1,42.1C17.1,42.1,17.1,42.1,17.1,42.1c0.1,0.1,0.2,0.2,0.3,0.3C17.3,42.3,17.2,42.2,17.1,42.1
		C17.1,42.1,17.1,42.1,17.1,42.1z M18.2,44.1c0-0.2-0.1-0.3-0.1-0.5c-0.1-0.3-0.2-0.6-0.4-0.9c0.2,0.2,0.4,0.3,0.7,0.4
		c0,0,0.1,0,0.1,0c0.2,0,0.4-0.1,0.6-0.2c-0.1,0.1-0.3,0.2-0.4,0.4C18.4,43.5,18.3,43.8,18.2,44.1z M23.5,41.6
		c0.2,0,0.5,0.1,0.7,0.2c0,0,0.1,0,0.1,0c0,0-0.1,0-0.1,0C24,41.7,23.8,41.6,23.5,41.6z M24.9,42C24.9,42,24.9,42,24.9,42
		C24.9,42,24.9,42,24.9,42z M27.8,42.8C27.8,42.8,27.9,42.7,27.8,42.8c0.1-0.1,0.1-0.1,0.1-0.1C27.9,42.7,27.9,42.7,27.8,42.8
		C27.9,42.7,27.8,42.8,27.8,42.8z M30.5,41.9c0.1,0,0.2,0.1,0.3,0.1C30.7,42,30.6,41.9,30.5,41.9z M30,41.9
		C30,41.9,30.1,41.9,30,41.9c0.1,0,0.2,0,0.3,0C30.2,41.9,30.1,41.9,30,41.9z M31.5,42.5c-0.2-0.2-0.4-0.3-0.6-0.4
		c0,0,0.1,0,0.1,0.1c0.2,0.1,0.3,0.1,0.5,0.1c0.2,0,0.3,0,0.5-0.1c0.2-0.1,0.4-0.2,0.6-0.2c0,0,0,0,0,0C32.2,42,31.8,42.2,31.5,42.5
		z M33.1,41.9c0.2,0,0.4,0,0.6,0.1C33.5,41.9,33.3,41.9,33.1,41.9z M35.7,35.3c-0.2,0.4-0.4,0.9-0.1,1.4c0.1,0.2,0.2,0.3,0.4,0.5
		c0,0-0.1,0.1-0.1,0.1c-0.2,0.2-0.4,0.4-1,0.4l-0.2,0c-0.3,0-0.3-0.1-0.3-0.2c-0.2-0.5-0.3-1-0.4-1.4c-0.1-0.8,0.1-1.3,1.2-1.8
		c0.5,0.1,0.9,0.2,1.4,0.3C36.3,34.8,35.9,35,35.7,35.3z M42,18.5c-0.1,0.6-0.4,1.2-0.7,1.9c-0.3,0.5-0.5,0.8-0.8,1.1
		c-1,0.9-2.2,1.7-3.6,2.4c-1.9,1-3.9,1.7-6,2.5l-1.1,0.4c0,0,0-0.1-0.1-0.1c0.6-0.2,1.2-0.4,1.8-0.7c1.9-1,3.6-2.1,5.1-3.1
		c1.2-0.8,1.9-2.1,2.1-3.8c0-0.2,0.1-0.7-0.3-1.2c-0.3-0.3-0.6-0.5-1.2-0.5c-1.1,0-2.1,0.2-2.9,0.6L34,18.3
		c-0.6,0.3-1.1,0.6-1.7,0.8c-1,0.4-2.1,1-3.1,1.8c-1,0.9-1.8,2.1-2.3,3.7c-0.4,1.1-0.3,2,0.3,2.8c0.1,0.1,0.2,0.3,0.2,0.4
		c0.1,0.2,0.3,0.4,0.4,0.7c0.1,0.2,0.2,0.3,0.4,0.4c-0.3,0-0.5-0.1-0.8-0.5c-0.3-0.3-0.6-0.6-0.9-0.9c-0.1-0.1-0.2-0.2-0.3-0.3
		c0-0.2-0.1-0.4-0.1-0.5c0-0.4-0.1-1-0.3-1.5l0.1-0.4c0.1-0.5,0.2-1,0.3-1.4c0.1-0.4,0.2-0.9,0.4-1.1c0.7-0.8,1.6-1.7,2.7-2.4
		c1.7-1,3.3-1.8,5-2.3c0.3-0.1,0.6-0.2,0.8-0.3c0.6-0.2,1.1-0.4,1.6-0.5c0.4-0.1,0.8-0.1,1.2-0.1c0.7,0,1.4,0.1,2.2,0.2
		c0.3,0,0.5,0.1,0.8,0.1C41.6,16.9,42.1,17.8,42,18.5z"/>
	<path class="st0" d="M15,44.3c-0.3,0.1-0.5,0.2-0.7,0.3c-0.2,0.1-0.3,0.2-0.4,0.3c-0.1,0.1-0.2,0.3-0.5,0.6
		c-0.1,0.1-0.1,0.2-0.2,0.4c-0.1,0.2-0.1,0.3-0.1,0.3c0,0.1-0.1,0.2-0.1,0.3c0,0.1,0,0.2,0,0.3c0,0.2,0,0.3,0,0.4c0,0.2,0,0.5,0,0.9
		l0,0.6c0,0.2,0,0.3,0,0.4c0,0.2-0.1,0.4-0.2,0.5c-0.1,0.1-0.2,0.2-0.4,0.2c-0.1,0-0.1,0-0.2-0.1c-0.1,0-0.2-0.1-0.4-0.1
		c-0.2-0.1-0.3-0.2-0.5-0.3c-0.1-0.1-0.2-0.3-0.2-0.6c0-0.6-0.1-1.6-0.2-2.8c0-0.1,0-0.4-0.1-0.7c0-0.1-0.1-0.2-0.2-0.3
		c-0.1-0.1-0.2-0.1-0.4-0.1c-0.3,0-0.4,0.1-0.6,0.2c-0.6,0.3-1,0.7-1.2,1.1c-0.3,0.4-0.4,0.9-0.4,1.5l0,0.6c0,0.4-0.1,0.8-0.3,1.1
		c-0.1,0.1-0.2,0.2-0.4,0.3c-0.2,0.1-0.3,0.1-0.5,0.1c-0.1,0-0.2-0.1-0.4-0.2S6.5,49.1,6.5,49c0-1-0.1-2-0.1-3c0-0.9,0-1.6,0-2
		c0-0.2,0.1-0.4,0.2-0.5c0.1-0.1,0.3-0.2,0.5-0.2c0.3,0,0.5,0.1,0.7,0.3c0.1,0.2,0.2,0.4,0.3,0.4c0.1,0.1,0.2,0.1,0.2,0.1
		c0.1,0,0.2,0,0.3-0.1c0.1-0.1,0.2-0.2,0.4-0.4c0.4-0.4,0.8-0.7,1.3-0.7c0.5,0,1,0.2,1.7,0.7c0,0,0.1,0.1,0.2,0.2
		c0.1,0.1,0.2,0.1,0.2,0.1c0.1,0,0.2-0.1,0.4-0.3c0.7-0.6,1.5-1,2.6-1c0.3,0,0.7,0.1,1,0.4c0.3,0.3,0.5,0.6,0.6,0.9
		c0.1,0.6,0.2,1.3,0.3,2.2c0.1,1.3,0.1,2.2,0.1,2.8c0,0.3-0.1,0.5-0.2,0.7c-0.1,0.2-0.3,0.2-0.6,0.2c-0.2,0-0.4-0.1-0.6-0.2
		c-0.1,0-0.2-0.1-0.2-0.2c-0.1-0.1-0.1-0.2-0.1-0.3l-0.1-1.9c0-0.2,0-0.5,0-0.8c0-0.3,0-0.7-0.1-1.1C15.5,44.9,15.3,44.5,15,44.3z"
		/>
	<path class="st0" d="M22.1,47.4c-0.1,0-0.2,0-0.3,0c-0.1,0-0.2,0-0.3,0c0.1,0.4,0.3,0.7,0.7,1c0.4,0.2,0.8,0.4,1.2,0.4
		c0.4,0,0.7-0.1,1-0.3c0.4-0.2,0.8-0.5,1.2-0.8c0.2-0.2,0.4-0.3,0.7-0.3c0.1,0,0.2,0.1,0.3,0.2c0.1,0.2,0.1,0.4,0.1,0.6
		c0,0.2,0,0.4-0.1,0.6c-0.3,0.5-0.7,0.8-1.2,1c-0.5,0.2-1.1,0.3-1.8,0.3c-0.7,0-1.4-0.2-2-0.5c-0.6-0.3-1.2-0.7-1.6-1.2
		c-0.5-0.5-0.8-1.1-0.9-1.8c-0.1-0.4-0.1-0.7-0.1-1.1c0-0.6,0.2-1,0.5-1.4c0.3-0.4,0.8-0.7,1.6-1c0.7-0.3,1.3-0.4,1.8-0.4
		c0.4,0,0.8,0.1,1.2,0.2c1.2,0.4,1.7,0.9,1.7,1.5c0,0.4-0.2,0.9-0.7,1.5c-0.2,0.3-0.5,0.5-0.8,0.7c-0.3,0.2-0.6,0.4-0.9,0.6
		c-0.3,0.2-0.5,0.3-0.6,0.3C22.5,47.3,22.3,47.4,22.1,47.4z M23.3,43.7c-0.1,0-0.1-0.1-0.1-0.1c-0.3,0-0.7,0.1-1,0.3
		c-0.3,0.2-0.6,0.5-0.8,0.8c-0.2,0.3-0.3,0.6-0.3,0.9l0,0.1c0,0,0.1,0.1,0.2,0.2c0.1,0.1,0.2,0.1,0.2,0.1c0.9-0.6,1.5-1.2,1.9-1.5
		c0.1-0.1,0.1-0.2,0.1-0.4c0-0.1,0-0.2,0-0.3C23.4,43.8,23.3,43.8,23.3,43.7z"/>
	<path class="st0" d="M31.3,44.2c0,0,0.1,0.1,0.1,0.1l0.6-0.8c0.2-0.3,0.5-0.5,0.8-0.6c0.3-0.1,0.6,0,0.8,0.2c0.6,0.4,1,1,1.2,1.5
		l0.3,0.9l0.6,3.2c0.1,0.3,0.2,0.7,0.3,1.1c0.1,0.3,0.2,0.5,0.2,0.6l0.2,0.6c-0.3,0.1-0.6,0.1-0.8,0.1c-0.8,0-1.2-0.3-1.3-1
		c-0.1-0.7-0.3-1.5-0.5-2.4l-0.2-0.9c-0.3-0.9-0.6-1.3-0.9-1.3c-0.3,0-0.6,0.1-0.7,0.4c-0.2,0.4-0.4,0.8-0.4,1.2c0,0.4,0,1,0,1.7
		c-0.1,0.3-0.2,0.5-0.3,0.6c-0.1,0.1-0.3,0.2-0.6,0.2c-0.6,0-0.9-0.3-0.9-0.9c0-0.7-0.1-1.4-0.1-2.3c0-0.2,0-0.5-0.1-0.6
		c0-0.2-0.2-0.3-0.3-0.3c-0.1,0-0.2,0-0.3,0c-0.1,0-0.2,0-0.3,0c-0.2,0-0.4-0.1-0.6-0.1c-0.2,0-0.3-0.1-0.4-0.2
		c-0.1-0.1-0.2-0.2-0.1-0.4c0-0.2,0.1-0.4,0.2-0.6c0.1-0.1,0.2-0.2,0.3-0.4c0.1-0.1,0.2-0.2,0.4-0.4c0.4-0.4,0.9-0.6,1.5-0.6
		c0.4,0,0.7,0.1,0.8,0.4c0.2,0.3,0.3,0.5,0.4,0.9C31.3,44.1,31.3,44.2,31.3,44.2z"/>
	<path class="st0" d="M47.8,17.8c-0.6-3-2.1-5.6-3.9-7.9c-0.4-0.6-1-1.1-1.4-1.7c-1-1.5-2.2-2.8-3.6-3.9c-0.6-0.4-1.2-0.7-1.9-0.8
		c-0.1,0-0.3,0-0.4,0c-0.1,0-0.3,0-0.4,0c-0.8-0.4-1.5-0.8-2.3-1.1c-2.1-0.9-4.2-1.4-6.5-1c-0.1,0-0.2,0-0.2,0
		c-1.3-0.1-2.6-0.3-3.9-0.4C22.7,1,22,1,21.3,1.1c-2.4,0.3-4.8,0.9-7.2,1.6c-1.6,0.5-3.3,1-4.6,2.2C8.6,5.7,7.7,6.7,8,8.2
		c0,0.2,0.1,0.4,0.3,0.4C9,8.8,9.7,9,10.3,9.2c0.3,0.1,0.6,0.2,0.9,0.1C12.5,9,13.8,8.7,14.9,8c0.3-0.2,0.7-0.5,0.9-0.8
		c0.2-0.3,0.4-0.5,0.7-0.6c0.1-0.1,0.3-0.2,0.3-0.3c0-0.2-0.1-0.4-0.2-0.5c-0.1-0.1-0.4-0.2-0.6-0.2c-1.2-0.2-2.4-0.1-3.6,0.4
		c-0.6,0.3-1.1,0.6-1.4,1.2c0.2,0,0.4,0,0.5-0.1c0.5-0.2,0.9-0.4,1.4-0.5c0.2-0.1,0.5-0.1,0.6,0.2c0.1,0.3,0,0.5-0.3,0.6
		c-0.9,0.5-1.9,0.8-2.9,0.5c-0.2,0-0.4-0.2-0.4-0.4c0-0.5,0-1,0.5-1.3C11,5.8,11.5,5.4,12,5.2c0.6-0.3,1.3-0.4,2-0.6
		c0.4-0.1,0.9-0.2,1.3-0.2c0.8,0,1.5,0,2.2,0.3c0.5,0.2,0.6,0.6,0.8,1c0.1,0.4-0.2,0.5-0.4,0.7c-0.6,0.5-1.2,0.9-1.8,1.4
		c-1.2,1-2.5,1.7-4,2C11.6,10,11,10,10.4,9.9C9.8,9.8,9.2,9.6,8.6,9.5C7.8,9.4,7.1,9,6.4,8.6C6.2,8.5,6.1,8.3,6,8.1
		C5.8,7.8,5.8,7.6,5.7,7.3C5.5,7,5.3,7,5.1,7.2C4.8,7.6,4.5,8,4.2,8.4c-1.8,2.5-2.8,5.3-3.1,8.4C0.9,18.5,1,20.3,1.7,22
		c0.1,0.2,0.2,0.5,0.4,0.6c0.6,0.5,1.3,0.9,1.9,1.3c2.9,1.7,6,2.8,9.4,2.9c0.2,0,0.3-0.1,0.3-0.3c0-0.3,0-0.7,0-1
		c0.2-2,0.6-3.9,1.2-5.8c0.1-0.3,0-0.4-0.3-0.5c-0.3-0.1-0.7-0.2-1-0.2c-1.5-0.1-3.1-0.1-4.6,0.2c-0.5,0.1-1,0.3-1.5,0.5
		C7,20,6.5,20.3,5.9,20.5c-0.7,0.2-1.3-0.1-1.5-0.8c-0.1-0.4-0.2-0.8-0.2-1.3c-0.1-1.1-0.2-2.2-0.2-3.3c0-0.2,0.1-0.4,0.1-0.7
		c0-0.2,0.1-0.4,0.1-0.6c0.1-0.7,0.6-1.1,1.2-1.1c0.8,0.1,1.5,0.3,2.3,0.6c1.3,0.5,2.6,1,4,1.4c1.3,0.4,2.6,0.7,3.9,1
		c0.2,0.1,0.4,0.1,0.6,0.1c1.6,0,3.2-0.1,4.9-0.1c1.4,0,2.7-0.3,3.9-0.8c1-0.4,2.1-0.8,3.1-1.2c0.5-0.2,1-0.4,1.4-0.6
		c1.1-0.5,2.1-0.9,3.2-1.4c0.3-0.1,0.6-0.1,0.8,0.1c0.2,0.3,0.1,0.5-0.1,0.7c-0.3,0.4-0.6,0.9-0.9,1.3c-1,1.2-2.1,2.2-3.6,2.8
		c-1.4,0.6-2.9,1.3-4.4,1.9c-0.5,0.2-1,0.3-1.5,0.4c-1.3,0.2-2.6,0.4-3.9,0.6c-0.3,0-0.4,0.2-0.4,0.4c0,0.6,0,1.2-0.1,1.7
		c-0.2,1.6-0.5,3.2-0.7,4.7C18,27,18,27,18.6,27c1.5-0.1,3.1-0.2,4.6-0.2c0.2,0,0.4,0,0.4,0.3c0.1,0.3,0.2,0.5,0.3,0.8
		c0,0.2,0,0.3,0,0.5c-0.2,0-0.4,0-0.5,0c0,0-0.1-0.1-0.2-0.1c0.1,0.6-0.3,0.6-0.7,0.7c-0.7,0.2-1.4,0.4-2.2,0.6
		c-1.5,0.3-3.1,0.7-4.6,0.7c-2.1,0-4.3,0-6.4,0c-1.1,0-2.1,0.1-3.2,0.5c-1.6,0.7-2.5,1.9-2.4,3.6c0.1,0.9,0.4,1.7,1,2.5
		c0.7,1,1.7,1.7,2.9,1.7c0.2,0,0.3,0.1,0.3,0.3c0.2,0.7,0.6,1.3,1.2,1.7c0.3,0.2,0.5,0.3,0.8,0.5c0.1,0,0.3,0,0.4,0
		c0.7,0,1.3,0.2,2,0.6c0.2-0.1,0.5-0.3,0.7-0.4c-0.5-0.4-0.9-0.7-1.4-1c-0.5-0.3-1.3-1.2-1.5-1.7c0.1,0,0.1,0,0.1,0
		c0.4,0.3,0.7,0.5,1,0.8c0.7,0.7,1.4,1.2,2.2,1.8c0.6-0.2,1.2-0.3,1.8-0.4c0,0,0.1,0,0.2,0c0.5,0,1.3,0.1,2.2,0.8
		c0.3,0.2,0.5,0.5,0.7,0.8c0.5-0.4,1-0.7,1.7-1c0.9-0.4,1.8-0.6,2.6-0.6c0.6,0,1.2,0.1,1.8,0.3c1.2,0.4,1.9,0.9,2.4,1.4
		c0.1-0.1,0.2-0.2,0.3-0.3c0.8-0.7,1.7-1.1,2.7-1.1c0,0,0.1,0,0.1,0c0.6,0,1.1,0.1,1.5,0.4c0.3-0.1,0.5-0.2,0.8-0.3
		c0.2,0,0.4-0.1,0.7-0.1c0.6,0,1.2,0.2,1.7,0.6c0.4-0.4,0.8-0.8,1.3-1.1c0.1-0.1,0.2-0.2,0.4-0.3c0.9-0.8,1.8-1.5,2.6-2.3
		c0.1-0.1,0.2-0.2,0.2-0.3c0.3-0.5,0.4-1,0.3-1.6c0-0.3-0.1-0.5-0.4-0.6c-0.8-0.4-2.2-0.1-2.7,0.6c0,0.1-0.1,0.2,0,0.2
		c0.2,0.3,0.5,0.5,0.8,0.5c0.3,0,0.4-0.1,0.5-0.3c0.1-0.1,0.3-0.2,0.4-0.2c0.1,0,0.2,0.2,0.3,0.4c0,0.1,0,0.2-0.1,0.4
		c-0.2,0.6-0.7,0.8-1.3,0.9c-0.1,0-0.3,0-0.4,0.1c-0.5,0.6-1.2,0.8-2,0.7c-0.6,0-1-0.3-1.2-0.9c-0.2-0.5-0.4-1.1-0.4-1.6
		c-0.1-1.4,0.5-2.3,2-2.9c0.1,0,0.2,0,0.3,0c1.6,0.2,3.1,0.7,4.5,1.5c0.3,0.2,0.5,0.4,0.5,0.8c0,1,0.1,1.9,0,2.9
		c-0.1,1.2-0.3,2.4-0.9,3.4c0.2,0,0.4,0.1,0.6,0.1c0.1,0,0.2,0.1,0.3,0.1c0.2-1.4,1.3-2.2,2.4-2.2c0.2,0,0.3,0,0.5,0
		c0.3-0.3,0.6-0.7,0.9-1c0.3-0.3,0.6-0.7,0.6-1.2c0.2-1.2,0.3-2.4,0.1-3.6c-0.1-0.4-0.3-0.8-0.7-1c-1.3-0.8-2.7-1.4-4.2-1.6
		c-1.3-0.2-2.6-0.3-4-0.4c-1.4-0.2-2.7-0.3-4-0.6c-1.4-0.3-2.8-0.6-4.2-0.7c-0.6-0.1-1.1-0.4-1.5-0.9c-0.4-0.5-0.8-0.9-1.3-1.4
		c-0.1-0.1-0.1-0.2-0.1-0.3c-0.2-0.7-0.1-1.4-0.4-2c-0.1-0.1-0.1-0.2,0-0.4c0.1-0.7,0.2-1.4,0.4-2c0.1-0.5,0.3-1.1,0.7-1.5
		c0.9-1,1.8-1.9,2.9-2.6c1.7-1,3.4-1.8,5.2-2.4c0.8-0.3,1.7-0.6,2.5-0.8c1.5-0.3,3,0,4.5,0.2c1.3,0.2,2.2,1.5,2.1,2.7
		c-0.1,0.8-0.5,1.6-0.9,2.3c-0.3,0.5-0.6,1-1,1.3c-1.1,1-2.4,1.9-3.8,2.6c-2.4,1.3-4.9,2.1-7.4,3c-0.3,0.1-0.6,0.1-0.8-0.2
		c-0.2-0.4-0.5-0.7-0.7-1.1c-0.2-0.3-0.1-0.4,0.2-0.5c0.8-0.3,1.7-0.5,2.4-0.9c1.7-0.9,3.4-1.9,5-3c1-0.7,1.5-1.8,1.7-3
		c0-0.4-0.1-0.5-0.5-0.5c-0.9,0-1.7,0.1-2.5,0.5c-0.7,0.4-1.4,0.7-2.2,1c-1,0.4-2,0.9-2.8,1.6c-1,0.9-1.6,2-2,3.3
		c-0.2,0.6-0.3,1.3,0.1,1.9c0.2,0.3,0.4,0.7,0.6,1c0.2,0.3,0.5,0.7,0.9,0.9c0.5,0.3,1,0.6,1.5,0.8c2.1,1,4.2,1,6.3,0.4
		c0.4-0.1,0.9-0.3,1.3-0.4c1.8-0.5,3.6-1.1,5.3-2c2.7-1.4,4-3.7,4.2-6.6C48.2,20,48.1,18.8,47.8,17.8z M33.6,22.1c0-0.1,0-0.3,0-0.4
		c0-0.5,0.4-0.8,0.9-0.6c0.2,0.1,0.3,0.3,0.4,0.4c-0.1,0.2-0.2,0.4-0.3,0.5c-0.3,0.2-0.5,0.3-0.8,0.4C33.7,22.3,33.6,22.2,33.6,22.1
		z M32.3,21.9c0-0.1,0.1-0.1,0.2-0.2c0.1,0.1,0.1,0.1,0.2,0.2c0.1,0.3,0.2,0.5,0.3,0.8C32.5,22.7,32.1,22.3,32.3,21.9z"/>
	<path class="st0" d="M42.5,45.8c0-0.3,0-0.8-0.1-1.4v-1.2v-0.7c0-0.4,0.1-0.6,0.4-0.6c0.1,0,0.2,0,0.3,0.1c0.6,0.3,1,0.6,1.1,0.9
		c0.3,1,0.5,2,0.5,2.9c0,1.1-0.2,2.1-0.6,3c-0.2,0.5-0.5,0.9-1,1.1c-0.4,0.3-0.9,0.4-1.4,0.4c-0.6,0-1.2-0.2-1.7-0.5
		c-0.8-0.5-1.3-1.3-1.5-2.3c-0.1-0.5-0.1-0.9-0.2-1.1c-0.1-0.7-0.2-1.3-0.2-1.7c0-0.3,0.1-0.5,0.3-0.7c0.2-0.2,0.5-0.3,0.7-0.3
		c0.1,0,0.2,0,0.3,0.1c0.4,0.2,0.8,0.4,0.9,0.7c0.2,0.3,0.2,0.7,0.2,1.2c0,0.4,0,0.7,0,0.9c0,0.7,0.1,1.3,0.4,1.7
		c0,0.1,0.1,0.2,0.2,0.3c0.1,0.1,0.1,0.1,0.2,0.1c0.1,0,0.2-0.1,0.3-0.1c0.1-0.1,0.2-0.2,0.2-0.3C42.3,47.6,42.5,46.8,42.5,45.8z"/>
</g>
</svg>
