<?xml version="1.0" encoding="utf-8"?>
<!-- Generator: Adobe Illustrator 24.0.2, SVG Export Plug-In . SVG Version: 6.00 Build 0)  -->
<svg version="1.1" id="Layer_1" xmlns="http://www.w3.org/2000/svg" xmlns:xlink="http://www.w3.org/1999/xlink" x="0px" y="0px"
	 viewBox="0 0 1000 680.3" style="enable-background:new 0 0 1000 680.3;" xml:space="preserve">
<path d="M985.7,316.4c-18.2-16.8-34-36.2-54.9-49.9c-11.1-7.3-24.3-13.1-37.8-9.5c-12.2,3.2-23.6,11.4-33.3,19.3
	c-9.1,7.4-17.3,15.7-26.1,23.3c-6.7,5.8-14.4,10.6-23.2,12.3c-7.5,1.4-15.1,0.5-22.6,0.1c-10.7-0.6-21.1,0.8-31.7,2.2
	c-23.1,3.1-45.3,8.5-59.8,28.3c-10.7,14.6-17.1,32.2-29.1,46c-4.8,5.6-11.2,11.1-18.4,13.2c-7.8,2.2-16.9,0.2-24.5-1.6
	c-9.1-2.1-18.6-4.5-27.3-8c-8.4-3.5-16.3-8.6-25.4-10.6c-12.6-2.7-24.9,2.8-35.8,8.4c-10.7,5.5-20.6,12.3-30.6,18.8
	c-9,5.8-18.7,13.2-29,16.4c-9.4,2.8-19.7,0.9-29-1.3c-11.1-2.7-22-5.9-33.2-8.2c-10.8-2.2-21.7-4.4-32.2-8
	c-10-3.4-19.5-7.9-28.5-13.5c-8.9-5.5-18-10.5-26.7-16.3c-7.5-5-14.7-10.7-20-18.1c-6.8-9.4-9.2-20.7-16.9-29.6
	c-6.7-7.7-14.9-14-21.5-21.8c-7.1-8.4-12-18.3-18.3-27.3c-14.8-21.2-40.1-33.2-64.3-20.3c-20.4,10.8-31,32.2-48.7,46.2
	c-7.2,5.7-15.8,10.8-25.3,11c-10.2,0.2-20.1-4.7-29.9,0.1c-18.8,9.3-20,35.1-38.4,44.8c-7.9,4.2-16.6,5.7-25.1,8.1
	c-7,2-13,5.1-18.3,9.3v300.1h1000v-352C995.1,324.5,990.3,320.6,985.7,316.4z"/>
</svg>
